<svg width="320" height="320" viewBox="0 0 320 320" fill="none" xmlns="http://www.w3.org/2000/svg">
<path d="M150.304 81.0593C149.945 80.2072 149.344 79.479 148.575 78.9648C147.807 78.4506 146.904 78.1731 145.98 78.1665H59.6782C58.4377 78.1672 57.2482 78.6603 56.371 79.5375C55.4938 80.4147 55.0007 81.6042 55 82.8447V192.024C55.0007 193.265 55.4938 194.454 56.371 195.332C57.2482 196.209 58.4377 196.702 59.6782 196.703H145.983C147.223 196.701 148.412 196.208 149.289 195.331C150.166 194.454 150.66 193.265 150.661 192.024V82.8447C150.663 82.2319 150.543 81.6248 150.307 81.0593H150.304ZM149.619 192.024C149.618 192.989 149.234 193.914 148.552 194.596C147.87 195.279 146.945 195.663 145.98 195.664H59.6782C58.7132 195.664 57.7877 195.28 57.1052 194.598C56.4228 193.915 56.0392 192.99 56.0389 192.025V82.8454C56.0402 81.8806 56.4241 80.9556 57.1063 80.2734C57.7885 79.5912 58.7134 79.2073 59.6782 79.206H145.983C146.71 79.2088 147.419 79.428 148.021 79.8358C148.623 80.2435 149.089 80.8213 149.361 81.4954C149.414 81.6297 149.46 81.7668 149.498 81.906C149.58 82.2123 149.622 82.5281 149.622 82.8454L149.619 192.024Z" fill="#3F3D56"/>
<path d="M132.294 103.943H106.298C105.747 103.943 105.218 103.724 104.828 103.334C104.438 102.944 104.219 102.415 104.219 101.864C104.219 101.312 104.438 100.783 104.828 100.393C105.218 100.003 105.747 99.7841 106.298 99.7841H132.294C132.845 99.7841 133.374 100.003 133.764 100.393C134.154 100.783 134.373 101.312 134.373 101.864C134.373 102.415 134.154 102.944 133.764 103.334C133.374 103.724 132.845 103.943 132.294 103.943Z" fill="#3F3D56"/>
<path d="M132.294 114.861H106.298C106.025 114.862 105.754 114.808 105.502 114.704C105.249 114.6 105.019 114.446 104.826 114.253C104.633 114.06 104.479 113.831 104.374 113.578C104.27 113.326 104.216 113.055 104.216 112.782C104.216 112.508 104.27 112.238 104.374 111.985C104.479 111.733 104.633 111.503 104.826 111.31C105.019 111.117 105.249 110.964 105.502 110.86C105.754 110.755 106.025 110.702 106.298 110.702H132.294C132.567 110.702 132.838 110.755 133.09 110.86C133.343 110.964 133.573 111.117 133.766 111.31C133.959 111.503 134.113 111.733 134.217 111.985C134.322 112.238 134.376 112.508 134.376 112.782C134.376 113.055 134.322 113.326 134.217 113.578C134.113 113.831 133.959 114.06 133.766 114.253C133.573 114.446 133.343 114.6 133.09 114.704C132.838 114.808 132.567 114.862 132.294 114.861Z" fill="#3F3D56"/>
<path d="M92.96 121.078H73.9628C73.3424 121.078 72.7477 120.831 72.3091 120.392C71.8704 119.954 71.6237 119.359 71.623 118.738V96.3202C71.6237 95.6999 71.8704 95.1051 72.3091 94.6665C72.7477 94.2278 73.3424 93.9811 73.9628 93.9805H92.96C93.5804 93.9811 94.1751 94.2278 94.6137 94.6665C95.0524 95.1051 95.2991 95.6999 95.2998 96.3202V118.738C95.2991 119.359 95.0524 119.954 94.6137 120.392C94.1751 120.831 93.5804 121.078 92.96 121.078Z" fill="#0D7EFF"/>
<path d="M132.113 137.217H73.3639C72.8123 137.217 72.2833 136.998 71.8933 136.608C71.5033 136.218 71.2842 135.689 71.2842 135.138C71.2842 134.586 71.5033 134.057 71.8933 133.667C72.2833 133.277 72.8123 133.058 73.3639 133.058H132.113C132.665 133.058 133.194 133.277 133.584 133.667C133.974 134.057 134.193 134.586 134.193 135.138C134.193 135.689 133.974 136.218 133.584 136.608C133.194 136.998 132.665 137.217 132.113 137.217Z" fill="#CCCCCC"/>
<path d="M132.113 148.135H73.3639C72.8123 148.135 72.2833 147.916 71.8933 147.526C71.5033 147.136 71.2842 146.607 71.2842 146.056C71.2842 145.504 71.5033 144.975 71.8933 144.585C72.2833 144.195 72.8123 143.976 73.3639 143.976H132.113C132.665 143.976 133.194 144.195 133.584 144.585C133.974 144.975 134.193 145.504 134.193 146.056C134.193 146.607 133.974 147.136 133.584 147.526C133.194 147.916 132.665 148.135 132.113 148.135Z" fill="#CCCCCC"/>
<path d="M132.113 159.053H73.364C72.8129 159.053 72.2847 158.833 71.8953 158.443C71.5058 158.053 71.2871 157.525 71.2871 156.974C71.2871 156.423 71.5058 155.894 71.8953 155.504C72.2847 155.114 72.8129 154.895 73.364 154.894H132.113C132.387 154.894 132.657 154.947 132.91 155.051C133.163 155.156 133.392 155.309 133.586 155.502C133.779 155.695 133.932 155.925 134.037 156.177C134.142 156.43 134.196 156.7 134.196 156.974C134.196 157.247 134.142 157.518 134.037 157.77C133.932 158.023 133.779 158.252 133.586 158.445C133.392 158.638 133.163 158.791 132.91 158.896C132.657 159 132.387 159.054 132.113 159.053Z" fill="#CCCCCC"/>
<path d="M132.113 169.971H73.3639C72.8123 169.971 72.2833 169.752 71.8933 169.362C71.5033 168.972 71.2842 168.443 71.2842 167.892C71.2842 167.34 71.5033 166.811 71.8933 166.421C72.2833 166.031 72.8123 165.812 73.3639 165.812H132.113C132.665 165.812 133.194 166.031 133.584 166.421C133.974 166.811 134.193 167.34 134.193 167.892C134.193 168.443 133.974 168.972 133.584 169.362C133.194 169.752 132.665 169.971 132.113 169.971Z" fill="#CCCCCC"/>
<path d="M132.113 180.889H73.3639C72.8123 180.889 72.2833 180.67 71.8933 180.28C71.5033 179.89 71.2842 179.361 71.2842 178.81C71.2842 178.258 71.5033 177.729 71.8933 177.339C72.2833 176.949 72.8123 176.73 73.3639 176.73H132.113C132.665 176.73 133.194 176.949 133.584 177.339C133.974 177.729 134.193 178.258 134.193 178.81C134.193 179.361 133.974 179.89 133.584 180.28C133.194 180.67 132.665 180.889 132.113 180.889Z" fill="#CCCCCC"/>
<path d="M148 100C159.046 100 168 91.0457 168 80C168 68.9543 159.046 60 148 60C136.954 60 128 68.9543 128 80C128 91.0457 136.954 100 148 100Z" fill="#FF3341"/>
<path fill-rule="evenodd" clip-rule="evenodd" d="M155.071 72.9289C154.29 72.1479 153.024 72.1479 152.243 72.9289L148 77.1714L143.757 72.9289C142.976 72.1478 141.71 72.1478 140.929 72.9289C140.148 73.7099 140.148 74.9762 140.929 75.7573L145.172 79.9999L140.929 84.2426C140.148 85.0237 140.148 86.29 140.929 87.071C141.71 87.8521 142.976 87.8521 143.757 87.071L148 82.8283L152.243 87.071C153.024 87.852 154.29 87.852 155.071 87.071C155.852 86.2899 155.852 85.0236 155.071 84.2426L150.828 79.9999L155.071 75.7573C155.852 74.9763 155.852 73.71 155.071 72.9289Z" fill="white"/>
<path d="M271.097 224.983C269.144 236.999 260.346 246.303 250.979 254.433C249.672 255.569 248.361 256.682 247.047 257.773C247.037 257.778 247.029 257.789 247.019 257.794C246.956 257.846 246.893 257.899 246.834 257.951C246.563 258.176 246.292 258.401 246.023 258.623L246.191 258.676L246.717 258.837C246.537 258.788 246.359 258.74 246.178 258.691C246.124 258.676 246.068 258.663 246.015 258.647C239.804 256.97 233.468 255.129 228.391 251.199C223.124 247.117 219.496 240.158 221.313 233.747C221.552 232.907 221.884 232.096 222.303 231.33C222.474 231.009 222.663 230.699 222.861 230.393C224.062 228.507 225.743 226.976 227.731 225.955C229.72 224.934 231.944 224.462 234.176 224.586C236.408 224.71 238.566 225.426 240.429 226.661C242.293 227.896 243.793 229.605 244.777 231.612C244.688 224.548 238.235 219.396 232.183 215.75C226.129 212.107 219.273 208.17 217.37 201.363C216.309 197.575 217.201 193.674 219.285 190.379C219.35 190.278 219.415 190.178 219.482 190.08C222.038 186.226 225.953 183.478 230.447 182.385C238.831 180.483 247.618 183.986 254.495 189.149C265.563 197.454 273.317 211.322 271.097 224.983Z" fill="#F2F2F2"/>
<path d="M253.315 211.71C255.249 214.049 256.831 216.658 258.012 219.455C259.028 221.959 259.663 224.6 259.898 227.292C260.407 232.822 259.358 238.411 257.266 243.529C255.639 247.414 253.527 251.078 250.98 254.433C249.673 255.568 248.362 256.682 247.048 257.773C247.038 257.778 247.03 257.789 247.02 257.794C246.957 257.846 246.894 257.899 246.835 257.951C246.564 258.175 246.293 258.4 246.023 258.623L246.192 258.676L246.718 258.837C246.538 258.787 246.36 258.74 246.179 258.691C246.125 258.675 246.069 258.663 246.016 258.647C246.024 254.231 244.973 249.877 242.952 245.95C240.931 242.023 237.998 238.638 234.399 236.079C230.798 233.565 226.654 231.937 222.304 231.33C222.475 231.009 222.664 230.699 222.862 230.393C224.545 230.654 226.202 231.063 227.813 231.616C233.57 233.576 238.543 237.337 241.995 242.344C245.1 246.893 246.843 252.234 247.019 257.739C247.236 257.489 247.452 257.235 247.662 256.983C251.659 252.246 255.078 246.949 257.116 241.065C258.898 236.075 259.426 230.724 258.653 225.482C257.743 219.775 254.821 214.738 250.957 210.512C246.82 205.989 241.852 202.145 236.652 198.922C231.326 195.614 225.615 192.97 219.647 191.05C219.512 191.005 219.4 190.911 219.332 190.786C219.265 190.661 219.249 190.515 219.286 190.379C219.31 190.257 219.381 190.15 219.483 190.08C219.536 190.049 219.596 190.031 219.657 190.026C219.718 190.021 219.78 190.03 219.837 190.053C220.574 190.29 221.307 190.533 222.036 190.79C228.106 192.934 233.886 195.824 239.243 199.393C244.417 202.83 249.385 206.871 253.315 211.71Z" fill="white"/>
<path d="M147.75 184.272C147.153 184.271 146.579 184.043 146.144 183.635C145.708 183.226 145.445 182.668 145.406 182.072L145.056 176.74C145.016 176.117 145.224 175.503 145.635 175.034C146.047 174.565 146.628 174.278 147.251 174.238L189.028 171.502C189.687 171.458 190.347 171.545 190.973 171.757C191.598 171.969 192.175 172.302 192.672 172.737C193.168 173.172 193.574 173.701 193.866 174.293C194.158 174.885 194.33 175.529 194.373 176.188C194.417 176.846 194.33 177.507 194.117 178.132C193.905 178.757 193.571 179.335 193.136 179.831C192.701 180.327 192.172 180.732 191.58 181.024C190.987 181.316 190.343 181.488 189.685 181.531L147.908 184.267C147.855 184.27 147.803 184.272 147.75 184.272Z" fill="#0D7EFF"/>
<path d="M155.988 184.959C155.379 184.958 154.795 184.722 154.357 184.3C153.918 183.877 153.661 183.302 153.637 182.694L153.34 174.729C153.328 174.42 153.377 174.112 153.485 173.822C153.592 173.533 153.756 173.267 153.966 173.04C154.176 172.814 154.429 172.631 154.71 172.502C154.991 172.373 155.295 172.301 155.603 172.29L189.958 171.006C190.582 170.982 191.189 171.208 191.647 171.632C192.104 172.057 192.374 172.646 192.398 173.269L192.695 181.234C192.707 181.543 192.657 181.851 192.55 182.141C192.442 182.43 192.279 182.696 192.069 182.923C191.858 183.149 191.606 183.332 191.325 183.461C191.044 183.59 190.74 183.662 190.431 183.674L156.077 184.958C156.047 184.959 156.017 184.959 155.988 184.959Z" fill="#2F2E41"/>
<path d="M196.246 258.378H190.902C190.278 258.377 189.68 258.129 189.238 257.688C188.797 257.247 188.549 256.648 188.548 256.025V211.486C188.549 210.862 188.797 210.264 189.238 209.823C189.68 209.382 190.278 209.133 190.902 209.133H196.246C196.87 209.133 197.468 209.382 197.909 209.823C198.35 210.264 198.598 210.862 198.599 211.486V256.025C198.598 256.648 198.35 257.247 197.909 257.688C197.468 258.129 196.87 258.377 196.246 258.378Z" fill="#2F2E41"/>
<path d="M172.527 234.835L167.957 232.065C167.424 231.741 167.041 231.219 166.892 230.613C166.743 230.007 166.841 229.367 167.164 228.833L190.251 190.745C190.575 190.212 191.097 189.829 191.703 189.68C192.309 189.532 192.949 189.63 193.483 189.952L198.053 192.722C198.586 193.046 198.969 193.569 199.117 194.175C199.266 194.781 199.168 195.421 198.845 195.955L175.759 234.043C175.435 234.576 174.913 234.959 174.307 235.107C173.701 235.256 173.061 235.158 172.527 234.835Z" fill="#2F2E41"/>
<path d="M188.13 162.652C198.328 162.652 206.595 154.385 206.595 144.187C206.595 133.989 198.328 125.722 188.13 125.722C177.932 125.722 169.665 133.989 169.665 144.187C169.665 154.385 177.932 162.652 188.13 162.652Z" fill="#0D7EFF"/>
<path d="M178.134 150.492C177.54 150.297 176.995 149.976 176.535 149.553C176.23 149.251 175.996 148.885 175.847 148.483C175.698 148.08 175.639 147.65 175.674 147.222C175.694 146.917 175.783 146.621 175.936 146.356C176.089 146.092 176.301 145.866 176.555 145.697C177.215 145.273 178.099 145.272 178.998 145.668L178.964 138.46L179.688 138.457L179.728 146.931L179.17 146.58C178.523 146.174 177.599 145.888 176.946 146.307C176.785 146.417 176.651 146.564 176.556 146.734C176.46 146.905 176.405 147.096 176.395 147.291C176.371 147.61 176.415 147.93 176.526 148.23C176.636 148.53 176.81 148.802 177.035 149.029C177.835 149.793 179.001 150.032 180.332 150.245L180.217 150.96C179.51 150.867 178.813 150.71 178.134 150.492Z" fill="#2F2E41"/>
<path d="M171.5 138.096L171.405 138.814L175.271 139.324L175.366 138.606L171.5 138.096Z" fill="#2F2E41"/>
<path d="M183.704 139.707L183.609 140.425L187.475 140.936L187.57 140.218L183.704 139.707Z" fill="#2F2E41"/>
<path d="M203.548 223.436H172.411C171.595 223.435 170.813 223.11 170.236 222.534C169.659 221.957 169.334 221.174 169.333 220.358L175.852 170.371C175.857 169.559 176.184 168.782 176.76 168.209C177.336 167.637 178.116 167.316 178.928 167.317H189.978C194.392 167.322 198.623 169.077 201.744 172.198C204.865 175.319 206.621 179.551 206.626 183.964V220.358C206.625 221.174 206.3 221.957 205.723 222.534C205.146 223.11 204.364 223.435 203.548 223.436Z" fill="#2F2E41"/>
<path d="M195.708 220.771C195.518 221.184 195.214 221.533 194.83 221.777C194.447 222.021 194.001 222.149 193.547 222.146L188.203 222.099C187.894 222.097 187.589 222.033 187.304 221.912C187.02 221.792 186.762 221.616 186.545 221.396C186.329 221.175 186.158 220.914 186.042 220.628C185.926 220.341 185.868 220.035 185.871 219.726L186.234 177.861C186.239 177.201 186.375 176.549 186.633 175.941C186.891 175.334 187.266 174.783 187.736 174.32C188.207 173.858 188.764 173.492 189.376 173.245C189.988 172.998 190.642 172.874 191.302 172.879C191.962 172.885 192.614 173.021 193.222 173.279C193.829 173.536 194.38 173.911 194.843 174.382C195.305 174.853 195.671 175.41 195.918 176.022C196.165 176.633 196.289 177.288 196.284 177.948L195.921 219.813C195.918 220.144 195.846 220.47 195.708 220.771Z" fill="#0D7EFF"/>
<path d="M198.068 209.595C197.879 210.008 197.574 210.357 197.191 210.601C196.807 210.845 196.362 210.973 195.907 210.97L186.78 210.89C186.156 210.884 185.56 210.631 185.123 210.186C184.686 209.741 184.443 209.141 184.447 208.517L184.745 174.14C184.748 173.831 184.812 173.525 184.932 173.241C185.053 172.956 185.229 172.698 185.449 172.482C185.67 172.265 185.93 172.094 186.217 171.978C186.504 171.862 186.81 171.804 187.119 171.807L196.246 171.886C196.555 171.889 196.861 171.952 197.145 172.073C197.43 172.193 197.688 172.369 197.904 172.59C198.121 172.81 198.292 173.071 198.408 173.357C198.524 173.644 198.582 173.951 198.579 174.26L198.281 208.637C198.279 208.968 198.206 209.294 198.068 209.595Z" fill="#2F2E41"/>
<path d="M188.474 133.236C186.006 131.193 182.706 133.125 179.915 132.851C177.244 132.588 175.095 130.238 174.509 127.709C173.826 124.758 175.307 121.761 177.538 119.871C179.982 117.801 183.263 117.157 186.39 117.472C189.974 117.833 193.276 119.438 196.248 121.398C199.116 123.23 201.763 125.388 204.135 127.828C206.261 130.088 208.076 132.795 208.699 135.878C209.264 138.68 208.932 141.803 207.315 144.217C206.457 145.455 205.294 146.45 203.939 147.108C202.527 147.835 201.016 148.364 199.651 149.181C197.585 150.418 195.603 152.937 196.306 155.506C196.457 156.068 196.744 156.583 197.141 157.008C197.618 157.518 198.448 156.816 197.969 156.305C197.129 155.407 197.139 154.189 197.556 153.09C198.054 151.851 198.958 150.819 200.12 150.161C201.55 149.307 203.136 148.767 204.603 147.986C206.008 147.271 207.22 146.228 208.134 144.944C209.861 142.446 210.33 139.229 209.872 136.27C209.376 133.068 207.671 130.182 205.557 127.777C203.256 125.159 200.449 122.96 197.587 120.99C194.516 118.877 191.133 117.106 187.416 116.512C184.195 115.998 180.721 116.418 177.946 118.221C175.356 119.904 173.4 122.752 173.26 125.896C173.215 127.325 173.552 128.741 174.237 129.998C174.921 131.254 175.928 132.305 177.153 133.043C178.41 133.763 179.861 134.07 181.302 133.922C182.842 133.793 184.378 133.292 185.933 133.393C186.636 133.423 187.311 133.681 187.854 134.128C188.394 134.574 189.009 133.678 188.474 133.236V133.236Z" fill="#2F2E41"/>
<path d="M166.763 229.476C166.769 229.436 166.777 229.395 166.786 229.354C166.85 229.052 166.974 228.765 167.15 228.511C167.326 228.257 167.55 228.04 167.811 227.873L172.301 224.976C172.826 224.639 173.463 224.523 174.073 224.655C174.683 224.786 175.216 225.154 175.555 225.678L189.407 247.156C189.746 247.68 189.862 248.318 189.73 248.928C189.598 249.538 189.23 250.071 188.705 250.409L184.215 253.305C183.69 253.643 183.053 253.759 182.443 253.627C181.833 253.495 181.3 253.127 180.961 252.603L167.109 231.126C166.792 230.638 166.669 230.05 166.763 229.476Z" fill="#2F2E41"/>
<path d="M272.643 259H141.366C141.272 259 141.181 258.962 141.114 258.895C141.047 258.829 141.01 258.738 141.01 258.643C141.01 258.549 141.047 258.458 141.114 258.391C141.181 258.324 141.272 258.286 141.366 258.286H272.643C272.737 258.286 272.828 258.324 272.895 258.391C272.962 258.458 273 258.549 273 258.643C273 258.738 272.962 258.829 272.895 258.895C272.828 258.962 272.737 259 272.643 259Z" fill="#3F3D56"/>
</svg>
