<svg width="320" height="320" viewBox="0 0 320 320" fill="none" xmlns="http://www.w3.org/2000/svg">
<g clip-path="url(#clip0)">
<path d="M184.704 171.6H136.304C134.501 171.598 132.773 170.881 131.498 169.606C130.223 168.331 129.506 166.603 129.504 164.8V92.0673C129.506 90.2645 130.223 88.5361 131.498 87.2613C132.773 85.9864 134.501 85.2694 136.304 85.2673H184.704C186.507 85.2694 188.235 85.9864 189.51 87.2613C190.785 88.5361 191.502 90.2645 191.504 92.0673V164.8C191.502 166.603 190.785 168.331 189.51 169.606C188.235 170.881 186.507 171.598 184.704 171.6ZM136.304 86.0673C134.713 86.0691 133.188 86.7019 132.063 87.8267C130.938 88.9515 130.306 90.4766 130.304 92.0673V164.8C130.306 166.391 130.938 167.916 132.063 169.041C133.188 170.165 134.713 170.798 136.304 170.8H184.704C186.295 170.798 187.82 170.165 188.945 169.041C190.069 167.916 190.702 166.391 190.704 164.8V92.0673C190.702 90.4766 190.069 88.9515 188.945 87.8267C187.82 86.7019 186.295 86.0691 184.704 86.0673H136.304Z" fill="#3F3D56"/>
<path d="M177.304 120.234H143.704C142.802 120.233 141.938 119.874 141.301 119.237C140.663 118.599 140.305 117.735 140.304 116.834V100.834C140.305 99.9324 140.663 99.0682 141.301 98.4308C141.938 97.7934 142.802 97.4348 143.704 97.4338H177.304C178.205 97.4349 179.069 97.7934 179.707 98.4308C180.344 99.0682 180.703 99.9324 180.704 100.834V116.834C180.703 117.735 180.344 118.599 179.707 119.237C179.069 119.874 178.205 120.233 177.304 120.234Z" fill="#0D7EFF"/>
<path d="M174.904 135.234H146.104C145.256 135.234 144.442 134.897 143.842 134.296C143.241 133.696 142.904 132.882 142.904 132.034C142.904 131.185 143.241 130.371 143.842 129.771C144.442 129.171 145.256 128.834 146.104 128.834H174.904C175.753 128.834 176.567 129.171 177.167 129.771C177.767 130.371 178.104 131.185 178.104 132.034C178.104 132.882 177.767 133.696 177.167 134.296C176.567 134.897 175.753 135.234 174.904 135.234Z" fill="#CCCCCC"/>
<path d="M174.904 147.234H146.104C145.256 147.234 144.442 146.897 143.842 146.296C143.241 145.696 142.904 144.882 142.904 144.034C142.904 143.185 143.241 142.371 143.842 141.771C144.442 141.171 145.256 140.834 146.104 140.834H174.904C175.753 140.834 176.567 141.171 177.167 141.771C177.767 142.371 178.104 143.185 178.104 144.034C178.104 144.882 177.767 145.696 177.167 146.296C176.567 146.897 175.753 147.234 174.904 147.234Z" fill="#CCCCCC"/>
<path d="M174.904 159.234H146.104C145.256 159.234 144.442 158.897 143.842 158.296C143.241 157.696 142.904 156.882 142.904 156.034C142.904 155.185 143.241 154.371 143.842 153.771C144.442 153.171 145.256 152.834 146.104 152.834H174.904C175.753 152.834 176.567 153.171 177.167 153.771C177.767 154.371 178.104 155.185 178.104 156.034C178.104 156.882 177.767 157.696 177.167 158.296C176.567 158.897 175.753 159.234 174.904 159.234Z" fill="#CCCCCC"/>
<path d="M187.504 96.4C192.585 96.4 196.704 92.281 196.704 87.2C196.704 82.119 192.585 78 187.504 78C182.423 78 178.304 82.119 178.304 87.2C178.304 92.281 182.423 96.4 187.504 96.4Z" fill="#0D7EFF"/>
<path d="M186.592 90.7096C186.385 90.71 186.183 90.643 186.018 90.5189L186.007 90.5112L183.845 88.8558C183.745 88.7793 183.66 88.6836 183.597 88.5743C183.533 88.4651 183.492 88.3443 183.475 88.219C183.458 88.0937 183.466 87.9663 183.499 87.8441C183.531 87.722 183.587 87.6074 183.664 87.5071C183.741 87.4067 183.837 87.3225 183.947 87.2593C184.056 87.1961 184.177 87.1552 184.302 87.1388C184.428 87.1224 184.555 87.131 184.677 87.1639C184.799 87.1969 184.914 87.2536 185.014 87.3309L186.414 88.4047L189.724 84.0887C189.8 83.9886 189.896 83.9046 190.005 83.8415C190.114 83.7784 190.235 83.7374 190.36 83.7209C190.485 83.7044 190.612 83.7127 190.734 83.7453C190.856 83.7779 190.97 83.8342 191.07 83.9109L191.05 83.9389L191.071 83.9114C191.273 84.0665 191.405 84.2955 191.438 84.548C191.472 84.8004 191.403 85.0558 191.249 85.2581L187.356 90.3347C187.266 90.4517 187.15 90.5463 187.018 90.6114C186.885 90.6764 186.739 90.71 186.592 90.7096Z" fill="white"/>
<path d="M286.2 212.4H237.8C235.997 212.398 234.269 211.681 232.994 210.406C231.719 209.131 231.002 207.403 231 205.6V132.867C231.002 131.065 231.719 129.336 232.994 128.061C234.269 126.786 235.997 126.069 237.8 126.067H286.2C288.003 126.069 289.731 126.786 291.006 128.061C292.281 129.336 292.998 131.065 293 132.867V205.6C292.998 207.403 292.281 209.131 291.006 210.406C289.731 211.681 288.003 212.398 286.2 212.4ZM237.8 126.867C236.209 126.869 234.684 127.502 233.559 128.627C232.434 129.752 231.802 131.277 231.8 132.867V205.6C231.802 207.191 232.434 208.716 233.559 209.841C234.684 210.965 236.209 211.598 237.8 211.6H286.2C287.791 211.598 289.316 210.965 290.441 209.841C291.565 208.716 292.198 207.191 292.2 205.6V132.867C292.198 131.277 291.565 129.752 290.441 128.627C289.316 127.502 287.791 126.869 286.2 126.867H237.8Z" fill="#3F3D56"/>
<path d="M276.4 144.034H247.6C246.752 144.034 245.938 143.697 245.338 143.097C244.738 142.496 244.4 141.682 244.4 140.834C244.4 139.985 244.738 139.171 245.338 138.571C245.938 137.971 246.752 137.634 247.6 137.634H276.4C277.249 137.634 278.063 137.971 278.663 138.571C279.263 139.171 279.6 139.985 279.6 140.834C279.6 141.682 279.263 142.496 278.663 143.097C278.063 143.697 277.249 144.034 276.4 144.034Z" fill="#CCCCCC"/>
<path d="M276.4 156.034H247.6C246.752 156.034 245.938 155.697 245.338 155.097C244.738 154.496 244.4 153.682 244.4 152.834C244.4 151.985 244.738 151.171 245.338 150.571C245.938 149.971 246.752 149.634 247.6 149.634H276.4C277.249 149.634 278.063 149.971 278.663 150.571C279.263 151.171 279.6 151.985 279.6 152.834C279.6 153.682 279.263 154.496 278.663 155.097C278.063 155.697 277.249 156.034 276.4 156.034Z" fill="#CCCCCC"/>
<path d="M278.8 186.634H245.2C244.298 186.633 243.434 186.274 242.797 185.637C242.159 184.999 241.801 184.135 241.8 183.234V167.234C241.801 166.332 242.159 165.468 242.797 164.831C243.434 164.193 244.298 163.835 245.2 163.834H278.8C279.701 163.835 280.565 164.193 281.203 164.831C281.84 165.468 282.199 166.332 282.2 167.234V183.234C282.199 184.135 281.84 184.999 281.203 185.637C280.565 186.274 279.701 186.633 278.8 186.634Z" fill="#E6E6E6"/>
<path d="M276.4 200.834H247.6C246.752 200.834 245.938 200.497 245.338 199.896C244.738 199.296 244.4 198.482 244.4 197.634C244.4 196.785 244.738 195.971 245.338 195.371C245.938 194.771 246.752 194.434 247.6 194.434H276.4C277.249 194.434 278.063 194.771 278.663 195.371C279.263 195.971 279.6 196.785 279.6 197.634C279.6 198.482 279.263 199.296 278.663 199.896C278.063 200.497 277.249 200.834 276.4 200.834Z" fill="#CCCCCC"/>
<path d="M291 137.6C296.081 137.6 300.2 133.481 300.2 128.4C300.2 123.319 296.081 119.2 291 119.2C285.919 119.2 281.8 123.319 281.8 128.4C281.8 133.481 285.919 137.6 291 137.6Z" fill="#3F3D56"/>
<path d="M290.088 131.91C289.881 131.91 289.679 131.843 289.514 131.719L289.504 131.711L287.341 130.056C287.241 129.979 287.156 129.884 287.093 129.774C287.029 129.665 286.988 129.544 286.971 129.419C286.954 129.294 286.962 129.166 286.995 129.044C287.027 128.922 287.084 128.807 287.16 128.707C287.237 128.607 287.333 128.522 287.443 128.459C287.552 128.396 287.673 128.355 287.799 128.339C287.924 128.322 288.051 128.331 288.173 128.364C288.295 128.397 288.41 128.454 288.51 128.531L289.91 129.605L293.22 125.289C293.296 125.189 293.392 125.105 293.501 125.041C293.611 124.978 293.731 124.937 293.856 124.921C293.981 124.904 294.108 124.913 294.23 124.945C294.352 124.978 294.466 125.034 294.566 125.111L294.546 125.139L294.567 125.111C294.769 125.267 294.901 125.495 294.934 125.748C294.968 126 294.899 126.256 294.745 126.458L290.852 131.535C290.762 131.652 290.646 131.746 290.514 131.811C290.381 131.876 290.236 131.91 290.088 131.91Z" fill="white"/>
<path d="M273.104 106.8H224.704C222.901 106.798 221.173 106.081 219.898 104.806C218.623 103.531 217.906 101.803 217.904 100V54.8674C217.906 53.0645 218.623 51.3361 219.898 50.0613C221.173 48.7865 222.901 48.0694 224.704 48.0674H273.104C274.907 48.0694 276.636 48.7865 277.91 50.0613C279.185 51.3361 279.902 53.0645 279.904 54.8674V100C279.902 101.803 279.185 103.531 277.91 104.806C276.636 106.081 274.907 106.798 273.104 106.8ZM224.704 48.8674C223.114 48.8692 221.588 49.5019 220.464 50.6267C219.339 51.7516 218.706 53.2766 218.704 54.8674V100C218.706 101.591 219.339 103.116 220.464 104.241C221.588 105.365 223.114 105.998 224.704 106H273.104C274.695 105.998 276.22 105.365 277.345 104.241C278.47 103.116 279.102 101.591 279.104 100V54.8674C279.102 53.2766 278.47 51.7516 277.345 50.6267C276.22 49.5019 274.695 48.8692 273.104 48.8674H224.704Z" fill="#3F3D56"/>
<path d="M263.304 92.6338H234.504C233.656 92.6338 232.842 92.2966 232.241 91.6965C231.641 91.0964 231.304 90.2825 231.304 89.4338C231.304 88.5851 231.641 87.7711 232.241 87.171C232.842 86.5709 233.656 86.2338 234.504 86.2338H263.304C264.153 86.2338 264.967 86.5709 265.567 87.171C266.167 87.7711 266.504 88.5851 266.504 89.4338C266.504 90.2825 266.167 91.0964 265.567 91.6965C264.967 92.2966 264.153 92.6338 263.304 92.6338Z" fill="#CCCCCC"/>
<path d="M263.304 80.6338H234.504C233.656 80.6338 232.842 80.2966 232.241 79.6965C231.641 79.0964 231.304 78.2825 231.304 77.4338C231.304 76.5851 231.641 75.7711 232.241 75.171C232.842 74.5709 233.656 74.2338 234.504 74.2338H263.304C264.153 74.2338 264.967 74.5709 265.567 75.171C266.167 75.7711 266.504 76.5851 266.504 77.4338C266.504 78.2825 266.167 79.0964 265.567 79.6965C264.967 80.2966 264.153 80.6338 263.304 80.6338Z" fill="#CCCCCC"/>
<path d="M263.304 68.6338H234.504C233.656 68.6338 232.842 68.2966 232.241 67.6965C231.641 67.0964 231.304 66.2825 231.304 65.4338C231.304 64.5851 231.641 63.7711 232.241 63.171C232.842 62.5709 233.656 62.2338 234.504 62.2338H263.304C264.153 62.2338 264.967 62.5709 265.567 63.171C266.167 63.7711 266.504 64.5851 266.504 65.4338C266.504 66.2825 266.167 67.0964 265.567 67.6965C264.967 68.2966 264.153 68.6338 263.304 68.6338Z" fill="#CCCCCC"/>
<path d="M278.304 58.4C283.385 58.4 287.504 54.281 287.504 49.2C287.504 44.119 283.385 40 278.304 40C273.223 40 269.104 44.119 269.104 49.2C269.104 54.281 273.223 58.4 278.304 58.4Z" fill="#3F3D56"/>
<path d="M277.392 52.7096C277.185 52.71 276.984 52.643 276.818 52.5189L276.808 52.5112L274.646 50.8558C274.545 50.7793 274.46 50.6836 274.397 50.5743C274.333 50.4651 274.292 50.3443 274.275 50.219C274.258 50.0937 274.266 49.9663 274.299 49.8441C274.331 49.722 274.388 49.6074 274.465 49.5071C274.542 49.4067 274.638 49.3225 274.747 49.2593C274.857 49.1961 274.977 49.1552 275.103 49.1388C275.228 49.1224 275.356 49.131 275.478 49.1639C275.6 49.1969 275.714 49.2536 275.814 49.3309L277.214 50.4047L280.524 46.0887C280.601 45.9886 280.696 45.9046 280.806 45.8415C280.915 45.7784 281.035 45.7374 281.16 45.7209C281.285 45.7044 281.413 45.7127 281.534 45.7453C281.656 45.7779 281.77 45.8342 281.871 45.911L281.85 45.9389L281.871 45.9114C282.073 46.0665 282.205 46.2955 282.238 46.548C282.272 46.8004 282.204 47.0558 282.049 47.2581L278.156 52.3347C278.066 52.4517 277.95 52.5463 277.818 52.6114C277.685 52.6764 277.54 52.71 277.392 52.7096Z" fill="white"/>
<path d="M31.965 267.613L31.9499 267.711C31.9319 267.615 31.9146 267.517 31.8982 267.421C31.8681 267.265 31.8421 267.109 31.8175 266.952C30.8425 260.813 31.379 254.53 33.3807 248.646C33.7654 247.498 34.2036 246.37 34.6953 245.264C36.5756 240.979 39.2412 237.084 42.5544 233.78C43.6302 232.679 44.8576 231.738 46.1995 230.983C46.3965 230.879 46.5946 230.78 46.7971 230.689C48.0381 230.087 49.4354 229.884 50.7963 230.109C51.2907 230.202 51.7698 230.363 52.2201 230.587C52.378 230.664 52.5301 230.748 52.6792 230.838C53.5889 231.435 54.3656 232.213 54.9607 233.123C55.5558 234.034 55.9565 235.058 56.1377 236.13C56.3962 237.73 56.3371 239.365 55.9638 240.943C55.9317 241.093 55.8973 241.243 55.8604 241.393C55.5957 242.444 55.2631 243.477 54.8648 244.485C50.8773 254.745 42.3081 263.848 31.965 267.613Z" fill="#F2F2F2"/>
<path d="M52.1936 230.62C49.0822 235.091 46.143 239.676 43.3761 244.374C40.6125 249.068 38.0297 253.862 35.6275 258.757C34.2837 261.495 32.9987 264.261 31.7724 267.055C31.6367 267.365 32.0947 267.634 32.2322 267.32C34.4222 262.333 36.7988 257.433 39.362 252.621C41.9236 247.814 44.6652 243.108 47.5866 238.505C49.2212 235.929 50.9101 233.389 52.6534 230.885C52.8483 230.605 52.3878 230.341 52.1936 230.62Z" fill="white"/>
<path d="M55.5229 240.97C53.1848 244.008 49.7432 246.003 45.9443 246.521C44.8845 246.665 43.8115 246.687 42.7468 246.584C42.4062 246.552 42.4038 247.083 42.7415 247.115C46.7038 247.448 50.6376 246.205 53.6889 243.656C54.5448 242.94 55.3146 242.128 55.9826 241.235C56.1872 240.962 55.7261 240.699 55.5229 240.97Z" fill="white"/>
<path d="M35.5534 257.453C35.0098 256.678 34.5581 255.843 34.2075 254.965C33.4066 252.961 33.1223 250.788 33.3808 248.646C33.7655 247.498 34.2037 246.37 34.6954 245.264C34.7252 245.307 34.7431 245.358 34.7474 245.41C34.7517 245.463 34.7422 245.516 34.7199 245.563C34.3737 246.394 34.1248 247.261 33.9782 248.148C33.4519 251.312 34.1825 254.557 36.0141 257.19C36.0373 257.218 36.0527 257.253 36.0589 257.289C36.065 257.325 36.0618 257.363 36.0494 257.397C36.0289 257.444 35.9966 257.484 35.9559 257.513C35.9152 257.543 35.8674 257.562 35.8172 257.567C35.7671 257.573 35.7163 257.565 35.67 257.545C35.6237 257.525 35.5835 257.493 35.5534 257.453Z" fill="white"/>
<path d="M46.2786 230.647C45.6387 233.197 45.8293 235.885 46.8226 238.319C46.8578 238.38 46.9156 238.424 46.9833 238.443C47.0511 238.461 47.1234 238.452 47.1846 238.418C47.2444 238.382 47.288 238.324 47.3064 238.257C47.3248 238.189 47.3166 238.117 47.2834 238.056C46.3532 235.746 46.1806 233.201 46.7905 230.787C46.8064 230.72 46.7956 230.649 46.7604 230.59C46.7253 230.531 46.6685 230.488 46.6021 230.47C46.5357 230.452 46.4648 230.46 46.4045 230.493C46.3441 230.526 46.299 230.582 46.2786 230.647H46.2786Z" fill="white"/>
<path d="M31.8997 254.799L31.9319 254.893C31.8715 254.817 31.8107 254.738 31.7513 254.66C31.6522 254.536 31.5566 254.41 31.4619 254.282C27.7471 249.299 25.3036 243.486 24.3429 237.345C24.1501 236.149 24.0144 234.947 23.9359 233.739C23.6107 229.072 24.162 224.384 25.5613 219.919C26.0025 218.445 26.652 217.04 27.49 215.749C27.616 215.565 27.7454 215.386 27.8824 215.211C28.7017 214.101 29.845 213.273 31.1547 212.84C31.6357 212.692 32.1347 212.612 32.6377 212.602C32.8132 212.596 32.987 212.6 33.1608 212.611C34.2435 212.716 35.2927 213.045 36.2427 213.574C37.1927 214.104 38.023 214.825 38.6817 215.69C39.6539 216.987 40.3611 218.463 40.7632 220.033C40.8048 220.181 40.844 220.33 40.8808 220.48C41.1347 221.533 41.3199 222.603 41.4355 223.68C42.6702 234.618 39.31 246.66 31.8997 254.799Z" fill="#F2F2F2"/>
<path d="M32.6293 212.643C31.9509 218.048 31.4777 223.473 31.2096 228.919C30.9428 234.359 30.8826 239.805 31.029 245.255C31.1111 248.304 31.2581 251.351 31.47 254.395C31.4934 254.732 32.0239 254.757 32.0002 254.416C31.6228 248.982 31.4514 243.539 31.4859 238.087C31.5214 232.64 31.7634 227.199 32.2121 221.766C32.4632 218.725 32.779 215.692 33.1595 212.664C33.202 212.326 32.6717 212.306 32.6293 212.643V212.643Z" fill="white"/>
<path d="M40.3854 220.262C39.7264 224.039 37.6052 227.404 34.4817 229.627C33.6103 230.247 32.67 230.765 31.6795 231.169C31.3629 231.298 31.6074 231.77 31.9213 231.641C35.585 230.095 38.4912 227.167 40.009 223.492C40.4347 222.461 40.739 221.384 40.9157 220.283C40.9704 219.947 40.4397 219.928 40.3854 220.262V220.262Z" fill="white"/>
<path d="M30.3579 244.135C29.5168 243.701 28.729 243.172 28.0103 242.557C26.3703 241.154 25.1092 239.362 24.3431 237.345C24.1503 236.149 24.0146 234.947 23.936 233.739C23.9826 233.764 24.022 233.8 24.0502 233.845C24.0784 233.889 24.0945 233.941 24.0969 233.993C24.1759 234.889 24.3584 235.773 24.6408 236.627C25.6445 239.673 27.7985 242.207 30.6436 243.688C30.6775 243.702 30.707 243.726 30.7294 243.755C30.7518 243.784 30.7663 243.819 30.7714 243.855C30.7747 243.906 30.7647 243.956 30.7425 244.001C30.7203 244.047 30.6866 244.085 30.6447 244.114C30.6029 244.142 30.5544 244.159 30.5041 244.162C30.4538 244.166 30.4034 244.157 30.3579 244.135Z" fill="white"/>
<path d="M27.4043 215.415C28.0222 217.97 29.4394 220.262 31.4498 221.956C31.5092 221.993 31.581 222.006 31.6496 221.991C31.7182 221.976 31.7781 221.934 31.8162 221.875C31.8524 221.815 31.8643 221.744 31.8492 221.676C31.8342 221.608 31.7935 221.548 31.7356 221.509C29.839 219.896 28.5038 217.722 27.9225 215.301C27.9054 215.234 27.8631 215.176 27.8045 215.14C27.7459 215.104 27.6755 215.092 27.6083 215.107C27.5411 215.122 27.4822 215.162 27.4442 215.22C27.4061 215.277 27.3918 215.347 27.4043 215.415L27.4043 215.415Z" fill="white"/>
<path d="M32.1295 267.678L32.2073 267.74C32.1154 267.708 32.0217 267.674 31.9297 267.641C31.7794 267.59 31.6308 267.535 31.4822 267.478C25.6687 265.28 20.4788 261.698 16.3624 257.042C15.5559 256.138 14.7943 255.198 14.0774 254.222C11.2895 250.465 9.22958 246.218 8.00394 241.703C7.5815 240.222 7.37248 238.689 7.38321 237.15C7.39029 236.927 7.40263 236.706 7.42388 236.485C7.51657 235.109 8.03377 233.795 8.90423 232.725C9.23012 232.342 9.60745 232.006 10.0255 231.726C10.1705 231.627 10.3191 231.537 10.4712 231.452C11.4403 230.958 12.501 230.669 13.5869 230.604C14.6727 230.539 15.7603 230.699 16.7816 231.073C18.2991 231.642 19.6898 232.505 20.8741 233.611C20.989 233.714 21.1022 233.818 21.2137 233.924C21.9952 234.675 22.7272 235.477 23.405 236.322C30.3361 244.874 33.9901 256.829 32.1295 267.678Z" fill="#F2F2F2"/>
<path d="M10.0411 231.765C12.3803 236.685 14.9034 241.511 17.6103 246.243C20.3155 250.971 23.1975 255.592 26.2562 260.105C27.9676 262.63 29.7323 265.118 31.5502 267.569C31.7513 267.84 32.212 267.576 32.0083 267.301C28.7637 262.926 25.6878 258.432 22.7806 253.819C19.877 249.211 17.1509 244.496 14.6025 239.676C13.1768 236.98 11.8091 234.253 10.4992 231.497C10.3527 231.189 9.89506 231.458 10.0411 231.765Z" fill="white"/>
<path d="M20.6788 234.007C22.1577 237.545 22.1827 241.523 20.7484 245.078C20.3482 246.07 19.8345 247.012 19.2174 247.886C19.0205 248.166 19.4804 248.431 19.6756 248.154C21.9302 244.879 22.802 240.846 22.1015 236.932C21.9049 235.834 21.5812 234.763 21.1369 233.74C21.002 233.427 20.5448 233.697 20.6788 234.007Z" fill="white"/>
<path d="M25.0872 259.523C24.1452 259.611 23.1961 259.589 22.2592 259.458C20.1222 259.159 18.0945 258.329 16.3627 257.042C15.5562 256.138 14.7945 255.198 14.0776 254.223C14.1302 254.218 14.1829 254.228 14.2307 254.25C14.2785 254.272 14.3196 254.307 14.35 254.35C14.899 255.062 15.5287 255.709 16.2265 256.276C18.7128 258.302 21.8924 259.277 25.0872 258.992C25.1237 258.987 25.161 258.99 25.1957 259.003C25.2303 259.016 25.2612 259.037 25.2852 259.065C25.3151 259.106 25.3338 259.153 25.3395 259.204C25.3452 259.254 25.3376 259.304 25.3176 259.351C25.2976 259.397 25.2658 259.437 25.2254 259.468C25.1849 259.498 25.1373 259.517 25.0872 259.523Z" fill="white"/>
<path d="M7.13075 236.915C9.02759 238.735 11.4559 239.903 14.0623 240.247C14.2055 240.266 14.3262 240.112 14.3276 239.982C14.3259 239.912 14.2974 239.846 14.248 239.796C14.1986 239.747 14.1321 239.718 14.0623 239.717C11.5954 239.379 9.29962 238.266 7.50593 236.539C7.26001 236.302 6.88433 236.677 7.13073 236.915H7.13075Z" fill="white"/>
<path d="M68.3443 197.7C68.8625 197.344 69.2964 196.88 69.6156 196.339C69.9348 195.798 70.1315 195.193 70.1919 194.568C70.2522 193.943 70.1747 193.312 69.9648 192.72C69.7549 192.128 69.4178 191.589 68.9771 191.141L70.6439 153.934L62.1577 154.886L62.6508 191.28C61.9477 192.07 61.5589 193.091 61.5581 194.149C61.5573 195.206 61.9444 196.228 62.6463 197.019C63.3481 197.81 64.3157 198.316 65.3659 198.442C66.4161 198.567 67.4759 198.303 68.3443 197.7Z" fill="#FFB8B8"/>
<path d="M83.8257 260.683L88.6557 261.532L93.4293 243.307L87.1009 242.054L83.8257 260.683Z" fill="#FFB8B8"/>
<path d="M97.1816 267.655L82.0021 264.986L83.0332 259.121L92.3479 260.759C93.1181 260.894 93.854 261.18 94.5138 261.6C95.1735 262.02 95.7441 262.565 96.1929 263.206C96.6418 263.846 96.9601 264.568 97.1298 265.332C97.2994 266.095 97.317 266.884 97.1816 267.655Z" fill="#2F2E41"/>
<path d="M70.5687 263.101L75.4727 263.1L77.8055 244.185L70.5679 244.186L70.5687 263.101Z" fill="#FFB8B8"/>
<path d="M84.9307 267.654L69.5184 267.654L69.5181 261.7L78.9756 261.699C80.5549 261.699 82.0696 262.327 83.1864 263.443C84.3031 264.56 84.9306 266.074 84.9307 267.654L84.9307 267.654Z" fill="#2F2E41"/>
<path d="M91.4301 257.921C91.3535 257.921 91.2771 257.917 91.2011 257.907L85.4291 257.432C85.1663 257.402 84.9125 257.318 84.6832 257.186C84.4538 257.054 84.2537 256.876 84.095 256.665C83.9363 256.453 83.8223 256.211 83.7599 255.954C83.6975 255.697 83.688 255.43 83.7321 255.169L89.0619 225.296L85.4605 206.307C85.4312 206.152 85.347 206.014 85.2236 205.917C85.1001 205.82 84.9457 205.771 84.7889 205.778C84.632 205.786 84.4833 205.85 84.3701 205.959C84.2569 206.068 84.1869 206.214 84.1729 206.371L79.6706 257.022C79.6212 257.53 79.3762 257.999 78.9874 258.33C78.5987 258.662 78.0965 258.829 77.5868 258.797L72.1489 258.594C71.6723 258.56 71.2246 258.353 70.8903 258.012C70.556 257.671 70.3582 257.219 70.3343 256.742L69.9688 196.035L98.1612 192.511L100.131 222.927L100.123 222.959L93.3265 256.429C93.223 256.854 92.9799 257.232 92.636 257.503C92.2922 257.773 91.8675 257.92 91.4301 257.921Z" fill="#2F2E41"/>
<path d="M79.2634 129.823C84.6893 129.823 89.0878 125.425 89.0878 119.999C89.0878 114.573 84.6893 110.174 79.2634 110.174C73.8375 110.174 69.439 114.573 69.439 119.999C69.439 125.425 73.8375 129.823 79.2634 129.823Z" fill="#FFB8B8"/>
<path d="M88.5205 200.471C86.984 200.481 85.4769 200.05 84.1777 199.229C79.4188 196.255 74.0135 197.437 71.215 198.406C70.9373 198.504 70.6412 198.537 70.3488 198.504C70.0565 198.47 69.7755 198.371 69.5268 198.214C69.2809 198.06 69.0731 197.852 68.9191 197.606C68.765 197.36 68.6686 197.082 68.637 196.793L63.548 151.343C62.6952 143.728 67.2823 136.569 74.4551 134.319C74.7245 134.235 74.9986 134.155 75.2771 134.079C77.5092 133.474 79.8468 133.365 82.1254 133.76C84.404 134.156 86.5683 135.046 88.4659 136.368C90.3989 137.704 92.0154 139.448 93.2018 141.477C94.3881 143.505 95.1155 145.769 95.3327 148.109L99.6169 193.864C99.646 194.16 99.606 194.459 99.5 194.737C99.394 195.015 99.2249 195.265 99.006 195.467C97.5042 196.856 93.1453 200.471 88.5205 200.471Z" fill="#0D7EFF"/>
<path d="M73.0242 161.09L61.5429 159.827C61.2162 159.791 60.9011 159.685 60.619 159.517C60.337 159.348 60.0946 159.121 59.9084 158.85C59.7222 158.579 59.5965 158.271 59.54 157.948C59.4834 157.624 59.4973 157.292 59.5807 156.974L62.5031 145.835C62.6964 144.165 63.5441 142.639 64.8604 141.593C66.1768 140.547 67.8542 140.065 69.5251 140.254C71.1959 140.443 72.7238 141.286 73.7737 142.6C74.8235 143.913 75.3097 145.589 75.1257 147.261L75.5595 158.731C75.5718 159.059 75.5132 159.386 75.3877 159.69C75.2621 159.994 75.0726 160.267 74.832 160.491C74.5914 160.715 74.3054 160.884 73.9934 160.987C73.6815 161.091 73.3509 161.126 73.0242 161.09V161.09Z" fill="#0D7EFF"/>
<path d="M99.571 196.106C100.043 195.691 100.417 195.178 100.669 194.602C100.921 194.027 101.043 193.403 101.028 192.775C101.012 192.147 100.859 191.53 100.58 190.967C100.3 190.405 99.9002 189.911 99.4087 189.519L96.5796 152.382L88.2642 154.254L93.1453 190.42C92.5426 191.289 92.2797 192.349 92.4063 193.399C92.5329 194.449 93.0404 195.416 93.8324 196.117C94.6245 196.818 95.6461 197.204 96.7038 197.202C97.7614 197.2 98.7816 196.81 99.571 196.106V196.106Z" fill="#FFB8B8"/>
<path d="M85.0757 158.755C84.835 158.532 84.6454 158.258 84.5199 157.955C84.3944 157.651 84.3358 157.324 84.3483 156.995L84.7822 145.525C84.5981 143.854 85.0843 142.178 86.1342 140.864C87.184 139.551 88.7119 138.707 90.3828 138.519C92.0536 138.33 93.7311 138.812 95.0474 139.858C96.3637 140.904 97.2115 142.43 97.4047 144.1L100.327 155.238C100.411 155.556 100.424 155.888 100.368 156.212C100.311 156.536 100.186 156.844 99.9994 157.115C99.8132 157.385 99.5708 157.613 99.2888 157.781C99.0067 157.95 98.6916 158.056 98.365 158.092L86.8836 159.354C86.5569 159.39 86.2263 159.356 85.9142 159.252C85.6022 159.149 85.3162 158.979 85.0757 158.755Z" fill="#0D7EFF"/>
<path d="M78.6788 130.193C78.5042 130.193 78.3301 130.173 78.1601 130.133L78.1102 130.121C69.4724 128.799 67.5636 123.796 67.1445 121.706C66.7108 119.543 67.2047 117.455 68.3206 116.644C67.7122 114.723 67.8098 113.02 68.6115 111.579C70.0097 109.067 73.0439 108.218 73.4509 108.114C75.8741 106.326 78.7734 107.52 79.301 107.762C83.9884 106.027 85.78 107.471 86.104 107.793C88.1993 108.17 89.4764 108.979 89.9005 110.199C90.6969 112.492 88.1783 115.343 88.0707 115.464L88.0148 115.526L84.2628 115.705C83.9067 115.722 83.5583 115.813 83.2399 115.974C82.9216 116.134 82.6405 116.359 82.4149 116.635C82.1893 116.911 82.0243 117.232 81.9304 117.576C81.8366 117.919 81.8161 118.279 81.8703 118.631C81.9718 119.086 82.1001 119.534 82.2545 119.974C82.8953 121.976 83.3754 123.687 82.7561 124.337C82.6158 124.463 82.4429 124.547 82.2572 124.579C82.0715 124.611 81.8805 124.591 81.706 124.519C81.1194 124.363 80.7211 124.396 80.5226 124.617C80.2145 124.961 80.3086 125.831 80.7875 127.067C80.9377 127.458 80.9782 127.883 80.9044 128.295C80.8307 128.707 80.6456 129.092 80.3691 129.406C80.161 129.652 79.9021 129.849 79.6103 129.985C79.3184 130.121 79.0007 130.192 78.6788 130.193Z" fill="#2F2E41"/>
<path d="M154.8 268H2.4C2.29391 268 2.19217 267.958 2.11716 267.883C2.04214 267.808 2 267.706 2 267.6C2 267.494 2.04214 267.392 2.11716 267.317C2.19217 267.242 2.29391 267.2 2.4 267.2H154.8C154.906 267.2 155.008 267.242 155.083 267.317C155.158 267.392 155.2 267.494 155.2 267.6C155.2 267.706 155.158 267.808 155.083 267.883C155.008 267.958 154.906 268 154.8 268Z" fill="#3F3D56"/>
</g>
<defs>
<clipPath id="clip0">
<rect width="320" height="320" fill="white"/>
</clipPath>
</defs>
</svg>
