<?xml version="1.0" standalone="no"?><!DOCTYPE svg PUBLIC "-//W3C//DTD SVG 1.1//EN" "http://www.w3.org/Graphics/SVG/1.1/DTD/svg11.dtd"><svg t="1618379177803" class="icon" viewBox="0 0 1195 1024" version="1.1" xmlns="http://www.w3.org/2000/svg" p-id="6234" xmlns:xlink="http://www.w3.org/1999/xlink" width="18.671875" height="16"><defs><style type="text/css"></style></defs><path d="M1156.631313 946.79348h-34.246915V328.623731a103.517122 103.517122 0 0 0-102.827008-103.517122H713.621162V103.517122A103.258329 103.258329 0 0 0 610.794154 0H175.634051a103.258329 103.258329 0 0 0-102.827008 103.517122v843.276358H38.560128a38.60326 38.60326 0 0 0 0 77.20652h1118.071185a38.60326 38.60326 0 0 0 0-77.20652z m-519.742218 0h-487.393118V103.517122a26.224338 26.224338 0 0 1 26.138074-26.26747h435.160103a26.224338 26.224338 0 0 1 26.138073 26.26747z m408.763236 0h-332.117434V302.399393h305.979361a26.26747 26.26747 0 0 1 26.138073 26.310602v618.083485z m-526.212038-721.686871H266.815383a38.60326 38.60326 0 0 0 0 77.20652h252.797439a38.60326 38.60326 0 0 0 0-77.20652z m0 207.034244H266.815383a38.60326 38.60326 0 0 0 0 77.206521h252.797439a38.60326 38.60326 0 0 0 0-77.206521z m417.260267 41.363717H828.352639a38.60326 38.60326 0 0 0 0 77.206521h108.73611a38.60326 38.60326 0 0 0 0-77.206521z m0 207.034245H828.352639a38.60326 38.60326 0 0 0 0 77.20652h108.73611a38.60326 38.60326 0 0 0 0-77.20652z m-417.087738-41.708774H266.815383a38.60326 38.60326 0 0 0 0 77.20652h252.797439a38.60326 38.60326 0 0 0 0-77.20652z" p-id="6235"></path></svg>