<?xml version="1.0" standalone="no"?><!DOCTYPE svg PUBLIC "-//W3C//DTD SVG 1.1//EN" "http://www.w3.org/Graphics/SVG/1.1/DTD/svg11.dtd"><svg t="1618378207635" class="icon" viewBox="0 0 1024 1024" version="1.1" xmlns="http://www.w3.org/2000/svg" p-id="3496" xmlns:xlink="http://www.w3.org/1999/xlink" width="16" height="16"><defs><style type="text/css"></style></defs><path d="M947.04 631.776c0.832-5.376 1.44-10.56 2.048-15.904 0.224-1.024 0.224-2.048 0.224-3.072l0.608-7.456c0.192-1.216 0.192-2.464 0.192-3.904 0.224-2.272 0.416-4.544 0.416-6.816 0-1.248 0.224-2.688 0.224-3.936 0.192-2.464 0.192-4.736 0.192-7.2 0-1.248 0-2.272 0.224-3.52 0-3.52 0.192-7.04 0.192-10.528A436.8 436.8 0 0 0 784.224 224.64a37.12 37.12 0 0 0-52.224 6.176 37.12 37.12 0 0 0 6.208 52.224 363.04 363.04 0 0 1 138.88 286.624c0 2.88 0 5.76-0.224 8.864v2.88c0 2.08-0.192 3.936-0.192 5.984 0 1.056-0.224 2.272-0.224 3.296-0.192 1.856-0.192 3.744-0.384 5.792 0 1.024-0.224 2.048-0.224 3.104l-0.64 6.176c0 0.64-0.192 1.248-0.192 2.08a163.968 163.968 0 0 0-178.688 163.2c0 20.448 16.704 37.152 37.12 37.152 20.448 0 37.152-16.704 37.152-37.12a89.728 89.728 0 0 1 89.568-89.6 89.728 89.728 0 0 1 89.568 89.6 89.728 89.728 0 0 1-89.6 89.536c-20.416 0-37.12 16.704-37.12 37.12 0 20.48 16.704 37.152 37.12 37.152A163.968 163.968 0 0 0 1024 771.04a162.752 162.752 0 0 0-76.96-139.264zM646.4 79.168A161.696 161.696 0 0 0 545.44 4.896a162.432 162.432 0 0 0-124 18.752 161.696 161.696 0 0 0-74.304 100.928c-3.104 12.16-4.544 24.544-4.736 36.928-18.976 8.032-37.568 17.536-55.296 28.256a437.024 437.024 0 0 0-208.832 321.28c-2.272 20.224 12.16 38.816 32.384 41.504 1.664 0.192 3.104 0.192 4.768 0.192a37.12 37.12 0 0 0 36.704-32.384 363.008 363.008 0 0 1 173.536-267.04c10.944-6.592 22.08-12.576 33.44-17.92a163.968 163.968 0 0 0 231.936 68.704 37.184 37.184 0 0 0 12.576-50.976 37.184 37.184 0 0 0-50.944-12.576 89.6 89.6 0 0 1-92.64-153.344 88.544 88.544 0 0 1 67.648-10.304c23.136 5.76 42.72 20.224 55.104 40.64a37.184 37.184 0 0 0 50.976 12.608 37.184 37.184 0 0 0 12.576-50.976zM697.568 923.52a37.12 37.12 0 0 0-48.512-20.192 363.52 363.52 0 0 1-317.984-18.784c-0.192 0-0.192-0.192-0.416-0.192-2.464-1.472-4.96-2.688-7.2-4.16-0.832-0.384-1.664-1.024-2.496-1.408a110.016 110.016 0 0 0-5.152-3.104 30.24 30.24 0 0 1-2.688-1.856c-1.632-1.024-3.104-2.08-4.736-3.104-0.832-0.64-1.856-1.248-2.688-1.856-1.664-1.024-3.296-2.272-4.96-3.52-0.64-0.416-1.024-0.832-1.632-1.216 2.688-4.16 5.344-8.256 7.84-12.608a163.808 163.808 0 0 0-62.944-222.848 37.024 37.024 0 0 0-50.56 14.24 37.024 37.024 0 0 0 14.24 50.56 89.696 89.696 0 0 1 34.464 121.728 89.376 89.376 0 0 1-121.76 34.464 89.696 89.696 0 0 1-34.432-121.728 37.024 37.024 0 0 0-14.24-50.56 37.024 37.024 0 0 0-50.56 14.24 163.968 163.968 0 0 0 62.528 223.456 161.28 161.28 0 0 0 79.648 20.864c27.648 0 54.88-7.04 79.232-20.224 1.44 1.024 2.688 2.048 4.128 3.072 0.192 0.224 0.416 0.224 0.64 0.416 2.656 1.856 5.344 3.936 8 5.76 0.832 0.64 1.888 1.28 2.688 1.888l5.984 4.128c1.056 0.64 2.08 1.44 3.328 2.048 1.856 1.28 3.904 2.496 5.76 3.712 1.024 0.64 2.272 1.472 3.296 2.08l6.208 3.712c1.024 0.64 1.856 1.248 2.88 1.664 3.104 1.856 6.208 3.52 9.28 5.344a437.6 437.6 0 0 0 214.208 56.128c56.96 0 113.92-11.136 168.384-33.6a37.12 37.12 0 0 0 20.224-48.512z" p-id="3497"></path></svg>