<?xml version="1.0" standalone="no"?><!DOCTYPE svg PUBLIC "-//W3C//DTD SVG 1.1//EN" "http://www.w3.org/Graphics/SVG/1.1/DTD/svg11.dtd"><svg t="1617695046372" class="icon" viewBox="0 0 1024 1024" version="1.1" xmlns="http://www.w3.org/2000/svg" p-id="5234" xmlns:xlink="http://www.w3.org/1999/xlink" width="16" height="16"><defs><style type="text/css"></style></defs><path d="M915.771429 206.514286c-0.342857-0.342857-69.828571 68.342857-208.114286 206.4l-97.028572-97.028572 206.742858-206.742857c-108.8-65.485714-248.571429-48.685714-339.2 41.942857A279.337143 279.337143 0 0 0 405.714286 420.571429l2.057143 7.657142-324 323.885715c-7.085714 7.085714-7.085714 18.742857 0 25.828571l161.6 161.6c7.085714 7.085714 18.742857 7.085714 25.828571 0l323.771429-323.771428 7.657142 2.057142c95.657143 25.485714 198.4-1.028571 269.714286-72.342857 90.742857-90.628571 107.542857-230.4 43.428572-338.971428z" p-id="5235"></path></svg>